<?xml version="1.0" encoding="UTF-8" standalone="no"?>
<!DOCTYPE svg PUBLIC "-//W3C//DTD SVG 1.1//EN" "http://www.w3.org/Graphics/SVG/1.1/DTD/svg11.dtd">
<svg width="100%" height="100%" viewBox="0 0 90 90" version="1.1" xmlns="http://www.w3.org/2000/svg" xmlns:xlink="http://www.w3.org/1999/xlink" xml:space="preserve" xmlns:serif="http://www.serif.com/" style="fill-rule:evenodd;clip-rule:evenodd;stroke-linejoin:round;stroke-miterlimit:2;">
    <g transform="matrix(1.17769,0,0,0.964467,53.1663,55.9391)">
        <path d="M31.276,4.211L31.276,35.316L5.803,35.316L5.803,4.211L31.276,4.211ZM30.427,5.247L6.652,5.247L6.652,34.279L30.427,34.279L30.427,5.247Z"/>
    </g>
    <g transform="matrix(1.17769,0,0,0.964467,23.1663,55.9391)">
        <path d="M31.276,4.211L31.276,35.316L5.803,35.316L5.803,4.211L31.276,4.211ZM30.427,5.247L6.652,5.247L6.652,34.279L30.427,34.279L30.427,5.247Z"/>
    </g>
    <g transform="matrix(1.17769,0,0,0.964467,-6.83368,55.9391)">
        <path d="M31.276,4.211L31.276,35.316L5.803,35.316L5.803,4.211L31.276,4.211ZM30.427,5.247L6.652,5.247L6.652,34.279L30.427,34.279L30.427,5.247Z"/>
    </g>
    <g transform="matrix(1.17769,0,0,0.964467,53.1663,25.9391)">
        <path d="M31.276,4.211L31.276,35.316L5.803,35.316L5.803,4.211L31.276,4.211ZM30.427,5.247L6.652,5.247L6.652,34.279L30.427,34.279L30.427,5.247Z"/>
    </g>
    <g transform="matrix(1.17769,0,0,0.964467,23.1663,25.9391)">
        <path d="M31.276,4.211L31.276,35.316L5.803,35.316L5.803,4.211L31.276,4.211ZM30.427,5.247L6.652,5.247L6.652,34.279L30.427,34.279L30.427,5.247Z"/>
    </g>
    <g transform="matrix(1.17769,0,0,0.964467,-6.83368,25.9391)">
        <path d="M31.276,4.211L31.276,35.316L5.803,35.316L5.803,4.211L31.276,4.211ZM30.427,5.247L6.652,5.247L6.652,34.279L30.427,34.279L30.427,5.247Z"/>
    </g>
    <g transform="matrix(1.17769,0,0,0.964467,53.1663,-4.06091)">
        <path d="M31.276,4.211L31.276,35.316L5.803,35.316L5.803,4.211L31.276,4.211ZM30.427,5.247L6.652,5.247L6.652,34.279L30.427,34.279L30.427,5.247Z"/>
    </g>
    <g transform="matrix(1.17769,0,0,0.964467,23.1663,-4.06091)">
        <path d="M31.276,4.211L31.276,35.316L5.803,35.316L5.803,4.211L31.276,4.211ZM30.427,5.247L6.652,5.247L6.652,34.279L30.427,34.279L30.427,5.247Z"/>
    </g>
    <g transform="matrix(1.17769,0,0,0.964467,-6.83368,-4.06091)">
        <path d="M31.276,4.211L31.276,35.316L5.803,35.316L5.803,4.211L31.276,4.211ZM30.427,5.247L6.652,5.247L6.652,34.279L30.427,34.279L30.427,5.247Z"/>
    </g>
    <g transform="matrix(1,0,0,1,30,-30)">
        <circle cx="45" cy="45" r="14" style="fill:rgb(255,0,0);"/>
        <path d="M45,31C52.727,31 59,37.273 59,45C59,52.727 52.727,59 45,59C37.273,59 31,52.727 31,45C31,37.273 37.273,31 45,31ZM45,32C37.825,32 32,37.825 32,45C32,52.175 37.825,58 45,58C52.175,58 58,52.175 58,45C58,37.825 52.175,32 45,32Z" style="fill:rgb(255,0,0);"/>
    </g>
    <g transform="matrix(1,0,0,1,-30,30)">
        <circle cx="45" cy="45" r="14" style="fill:rgb(255,0,0);"/>
        <path d="M45,31C52.727,31 59,37.273 59,45C59,52.727 52.727,59 45,59C37.273,59 31,52.727 31,45C31,37.273 37.273,31 45,31ZM45,32C37.825,32 32,37.825 32,45C32,52.175 37.825,58 45,58C52.175,58 58,52.175 58,45C58,37.825 52.175,32 45,32Z" style="fill:rgb(255,0,0);"/>
    </g>
    <g transform="matrix(1,0,0,1,-30,-30)">
        <circle cx="45" cy="45" r="14" style="fill:rgb(255,0,0);"/>
        <path d="M45,31C52.727,31 59,37.273 59,45C59,52.727 52.727,59 45,59C37.273,59 31,52.727 31,45C31,37.273 37.273,31 45,31ZM45,32C37.825,32 32,37.825 32,45C32,52.175 37.825,58 45,58C52.175,58 58,52.175 58,45C58,37.825 52.175,32 45,32Z" style="fill:rgb(255,0,0);"/>
    </g>
    <circle cx="45" cy="45" r="14" style="fill:rgb(255,0,0);"/>
    <path d="M45,31C52.727,31 59,37.273 59,45C59,52.727 52.727,59 45,59C37.273,59 31,52.727 31,45C31,37.273 37.273,31 45,31ZM45,32C37.825,32 32,37.825 32,45C32,52.175 37.825,58 45,58C52.175,58 58,52.175 58,45C58,37.825 52.175,32 45,32Z" style="fill:rgb(255,0,0);"/>
    <g transform="matrix(1,0,0,1,30,30)">
        <circle cx="45" cy="45" r="14" style="fill:rgb(255,0,0);"/>
        <path d="M45,31C52.727,31 59,37.273 59,45C59,52.727 52.727,59 45,59C37.273,59 31,52.727 31,45C31,37.273 37.273,31 45,31ZM45,32C37.825,32 32,37.825 32,45C32,52.175 37.825,58 45,58C52.175,58 58,52.175 58,45C58,37.825 52.175,32 45,32Z" style="fill:rgb(255,0,0);"/>
    </g>
</svg>
